<svg xmlns="http://www.w3.org/2000/svg" version="1.1" xmlns:xlink="http://www.w3.org/1999/xlink" xmlns:svgjs="http://svgjs.dev/svgjs" width="2000" height="1156" viewBox="0 0 2000 1156"><g transform="matrix(1,0,0,1,-1.2121212121212466,0.603072932083137)"><svg viewBox="0 0 396 229" data-background-color="#ffffff" preserveAspectRatio="xMidYMid meet" height="1156" width="2000" xmlns="http://www.w3.org/2000/svg" xmlns:xlink="http://www.w3.org/1999/xlink"><g id="tight-bounds" transform="matrix(1,0,0,1,0.2400000000000091,-0.11946686976388321)"><svg viewBox="0 0 395.52 229.23893373952777" height="229.23893373952777" width="395.52"><g><svg viewBox="0 0 395.52 229.23893373952777" height="229.23893373952777" width="395.52"><g><svg viewBox="0 0 395.52 229.23893373952777" height="229.23893373952777" width="395.52"><g id="textblocktransform"><svg viewBox="0 0 395.52 229.23893373952777" height="229.23893373952777" width="395.52" id="textblock"><g><svg viewBox="0 0 395.52 229.23893373952777" height="229.23893373952777" width="395.52"><g transform="matrix(1,0,0,1,0,0)"><svg width="395.52" viewBox="1.49 -36.21 64.11 37.160000000000004" height="229.23893373952777" data-palette-color="#e60800"><path d="M25.24-31.35L25.24-31.35Q24.71-31.35 24.11-31.18 23.51-31.01 22.92-30.52 22.34-30.03 21.79-29.16 21.24-28.3 20.84-26.88 20.43-25.46 20.19-23.45 19.95-21.44 19.95-18.65L19.95-18.65Q19.95-15.89 20.19-13.84 20.43-11.79 20.84-10.33 21.24-8.86 21.79-7.92 22.34-6.98 22.92-6.45 23.51-5.91 24.11-5.7 24.71-5.49 25.24-5.49L25.24-5.49Q25.98-5.49 26.61-5.81L26.61-5.81 26.61-15.16Q26.61-15.55 26.78-15.93 26.95-16.31 27.59-16.31L27.59-16.31 30.15-16.31Q30.37-16.31 30.59-16.28 30.81-16.26 30.98-16.15 31.15-16.04 31.25-15.81 31.35-15.58 31.35-15.16L31.35-15.16 31.35-1.15Q31.35-0.73 31.25-0.5 31.15-0.27 30.98-0.16 30.81-0.05 30.59-0.02 30.37 0 30.15 0L30.15 0 27.59 0Q27.27 0 27.09-0.1 26.9-0.2 26.79-0.37 26.68-0.54 26.65-0.74 26.61-0.95 26.61-1.15L26.61-1.15 26.61-1.86Q25.83-1.29 24.88-0.78 23.93-0.27 22.79 0.12 21.66 0.51 20.34 0.73 19.02 0.95 17.5 0.95L17.5 0.95Q15.72 0.95 13.84 0.63 11.96 0.32 10.19-0.5 8.42-1.32 6.84-2.73 5.25-4.15 4.06-6.32 2.88-8.5 2.19-11.54 1.49-14.58 1.49-18.65L1.49-18.65Q1.49-22.12 2.19-24.77 2.88-27.42 4.08-29.37 5.27-31.32 6.87-32.64 8.47-33.96 10.28-34.75 12.08-35.55 14-35.88 15.92-36.21 17.75-36.21L17.75-36.21Q19.75-36.21 21.56-35.89 23.36-35.57 24.87-35.08 26.37-34.59 27.54-33.98 28.71-33.37 29.47-32.79L29.47-32.79Q29.54-32.71 29.64-32.63 29.74-32.54 29.74-32.42L29.74-32.42Q29.74-32.32 29.66-32.18L29.66-32.18 28.61-30.52Q28.47-30.3 28.27-30.3L28.27-30.3Q28.13-30.3 27.87-30.46 27.61-30.62 27.22-30.82 26.83-31.03 26.34-31.19 25.85-31.35 25.24-31.35ZM15.82-18.65L15.82-18.65Q15.82-15.84 16.1-13.73 16.38-11.62 16.88-10.07 17.38-8.52 18.05-7.48 18.73-6.45 19.49-5.77 20.26-5.1 21.08-4.74 21.9-4.37 22.71-4.17L22.71-4.17Q22.44-4.32 21.97-4.65 21.51-4.98 20.96-5.62 20.41-6.25 19.86-7.28 19.31-8.3 18.86-9.85 18.41-11.4 18.13-13.56 17.85-15.72 17.85-18.65L17.85-18.65Q17.85-21.56 18.13-23.69 18.41-25.83 18.86-27.33 19.31-28.83 19.86-29.79 20.41-30.74 20.96-31.32 21.51-31.91 21.97-32.19 22.44-32.47 22.71-32.64L22.71-32.64Q21.9-32.45 21.08-32.12 20.26-31.79 19.49-31.16 18.73-30.54 18.05-29.57 17.38-28.59 16.88-27.1 16.38-25.61 16.1-23.54 15.82-21.46 15.82-18.65ZM35.35-3.39L35.35-31.64Q35.35-32.5 35.5-33.13 35.64-33.76 36.06-34.19 36.47-34.62 37.2-34.84 37.94-35.06 39.11-35.06L39.11-35.06 50.85-35.06Q52.68-35.06 54.49-34.8 56.3-34.55 57.93-33.89 59.57-33.23 60.97-32.07 62.38-30.91 63.4-29.08 64.43-27.25 65.01-24.68 65.6-22.12 65.6-18.65L65.6-18.65Q65.6-14.58 64.98-11.61 64.35-8.64 63.29-6.57 62.23-4.49 60.78-3.21 59.32-1.93 57.65-1.21 55.98-0.49 54.18-0.24 52.39 0 50.61 0L50.61 0 39.11 0Q37.94 0 37.2-0.22 36.47-0.44 36.06-0.85 35.64-1.27 35.5-1.9 35.35-2.54 35.35-3.39L35.35-3.39ZM62.16-18.14L62.16-18.14Q62.16-21.17 61.67-23.66 61.18-26.15 60.13-27.91 59.08-29.66 57.46-30.64 55.83-31.62 53.56-31.64L53.56-31.64 53.56-3.39Q55.83-3.42 57.47-4.58 59.1-5.74 60.14-7.74 61.18-9.74 61.67-12.41 62.16-15.09 62.16-18.14ZM51.49-3.37L51.49-31.69 49.58-31.69 49.58-3.37 51.49-3.37Z" opacity="1" transform="matrix(1,0,0,1,0,0)" fill="#e60800" class="wordmark-text-0" data-fill-palette-color="primary" id="text-0"></path></svg></g></svg></g></svg></g></svg></g><g></g></svg></g><defs></defs></svg><rect width="395.52" height="229.23893373952777" fill="none" stroke="none" visibility="hidden"></rect></g></svg></g></svg>